<svg width="190" height="38" viewBox="0 0 190 38" fill="none" xmlns="http://www.w3.org/2000/svg">
<path d="M35.6711 17.0919C35.8806 16.2479 36.09 15.2633 36.1598 14.2083C36.1598 15.1226 35.9853 16.1073 35.6711 17.0919Z" fill="#00AB62"/>
<path d="M5.33926 22.2255C5.06003 21.1705 4.95532 20.1507 4.95532 19.2012C5.06003 20.9947 5.33926 22.1552 5.33926 22.2255Z" fill="#00B4FF"/>
<path d="M5.33926 22.2256C5.30435 22.1553 5.02513 20.9948 4.95532 19.2013V19.1661C4.95532 18.1814 5.06003 17.2671 5.26945 16.3879C4.92042 19.3771 5.30435 22.0146 5.33926 22.2256Z" fill="#706766"/>
<path d="M10.4477 27.2288C9.39093 29.8582 8.39565 32.7928 7.78937 34.6515C7.42408 35.7714 6.38405 36.5388 5.2061 36.5388C4.16895 36.5388 3.85231 35.683 4.81888 35.307C5.08376 35.2039 5.27368 35.1417 5.30033 35.1331C5.30318 35.1322 5.3037 35.1321 5.3065 35.131C5.39415 35.0975 7.38872 34.197 5.37335 22.2258C8.75895 23.9842 9.95908 24.5913 10.4477 27.2288Z" fill="#FFC766"/>
<path d="M5.33926 22.2255C5.06003 21.1705 4.95532 20.1507 4.95532 19.2012C5.06003 20.9947 5.33926 22.1552 5.33926 22.2255Z" fill="#FFA200"/>
<path d="M12.7073 23.0692C10.5782 22.9638 7.93908 23.1348 5.34277 22.2253C5.44748 22.0143 7.15516 18.0052 9.42387 13.1873C10.5059 12.7653 11.9363 12.2741 13.6091 12.9422C13.6091 12.9422 13.5781 12.9808 13.6828 13.016C14.103 16.2625 13.6078 19.7492 12.7073 23.0692Z" fill="#EA6766"/>
<path d="M12.7073 23.0698C12.1489 25.3909 11.381 27.5712 10.6481 29.435C10.1245 26.7975 8.72838 23.949 5.34277 22.2258C8.13502 22.7182 10.5782 22.9643 12.7073 23.0698Z" fill="#EA6766"/>
<path d="M15.0437 23.1404C14.2475 28.6419 13.3122 34.05 12.4833 36.264C12.2262 36.9505 11.539 37.2423 10.806 37.2423H10.5528C9.55398 37.2423 8.73166 36.9154 9.53495 36.3218C9.82853 36.1048 10.5906 35.4296 10.6545 35.0701C10.8318 34.0716 11.1097 31.8493 10.6459 29.4353C11.3789 27.5714 12.1468 25.3911 12.7052 23.0701C13.5429 23.1404 14.3108 23.1404 15.0437 23.1404Z" fill="#EA6766"/>
<path d="M16.9241 8.29263C16.2959 8.15197 15.7374 8.04647 15.179 7.97613C14.3413 7.87063 13.5734 7.87063 12.8754 7.9058C12.8754 7.9058 12.8754 7.94097 12.9103 7.94097C13.4687 9.0663 16.61 11.0005 16.61 11.0005C16.61 13.3215 14.234 13.0487 13.6057 12.9783C13.8152 16.4247 13.4524 20.0384 12.6846 23.1683C13.5222 23.2035 15.0424 23.1604 15.7753 23.1253C16.8224 15.7754 16.959 8.29263 16.9241 8.29263C16.959 8.29263 16.959 8.29263 16.9241 8.29263Z" fill="#EA6766"/>
<path d="M9.45747 13.1885C7.18877 18.0063 5.44362 22.0154 5.33891 22.2264C5.33891 21.8747 5.1993 14.9117 9.45747 13.1885Z" fill="#EA6766"/>
<path d="M12.8809 7.8431C12.5667 7.87827 12.2526 7.91344 11.9734 7.94861C12.1479 7.56177 12.3573 7.17493 12.5667 6.75293C12.6715 7.03426 12.8809 7.77277 12.8809 7.8431Z" fill="#706766"/>
<path d="M12.5671 6.75293C12.3577 7.13977 12.1832 7.5266 11.9737 7.94861C11.4502 8.01894 10.9266 8.15961 10.4729 8.33544C11.6596 7.3156 12.5671 6.75293 12.5671 6.75293Z" fill="#706766"/>
<path d="M16.6153 10.937C16.6153 13.258 14.2347 13.0485 13.6064 12.9782C13.5017 11.2198 13.4042 9.60062 12.9155 7.87744C13.4391 9.00278 16.6153 10.937 16.6153 10.937Z" fill="#706766"/>
<path d="M10.4708 8.33643C8.62096 9.91893 6.14284 12.6971 5.27026 16.4248C5.6542 13.2246 6.91071 9.6376 10.4708 8.33643Z" fill="#706766"/>
<path d="M11.9721 7.94849C11.0995 9.70683 10.2618 11.5003 9.45904 13.1884C5.16595 14.9115 5.34047 21.8746 5.34047 22.2263C5.30556 22.0153 4.92163 19.3777 5.23576 16.4237C6.10834 12.6609 8.62137 9.91783 10.4363 8.33532C10.925 8.15949 11.4485 8.01882 11.9721 7.94849Z" fill="#706766"/>
<path d="M13.6085 12.9797C13.5038 12.9797 13.4979 12.9797 13.4979 12.9797C11.8226 12.5577 10.5429 12.731 9.46094 13.153C10.2637 11.465 11.1014 9.67146 11.974 7.91312C12.2532 7.87795 12.5673 7.84278 12.8815 7.80762C12.8815 7.80762 12.8815 7.84278 12.9164 7.84278C13.405 9.60113 13.5038 11.2565 13.6085 12.9797Z" fill="#706766"/>
<path d="M32.0879 29.4848C32.2877 29.9782 32.3346 30.5278 32.1725 31.0348L30.8482 35.1757C30.5819 36.0082 29.8082 36.5731 28.9342 36.5731H28.7308C27.4084 36.5731 26.9675 35.5868 28.1837 35.0674C28.3381 35.0015 28.435 34.9646 28.435 34.9646C28.435 34.9646 30.9468 31.5485 26.0384 25.6362C24.7819 24.4053 23.9442 22.8932 23.3857 21.2755C24.1885 20.7831 24.8419 20.1032 25.2956 19.5054C25.4352 19.7867 25.6762 20.0508 25.7381 20.3535C25.773 20.3886 25.8487 20.4306 25.8487 20.5009C26.6166 21.6966 27.5809 22.7997 28.8723 23.8195C29.8496 24.5932 30.602 25.3689 31.1953 26.1425C31.3656 27.5154 31.7859 28.7391 32.0879 29.4848Z" fill="#CAEE66"/>
<path d="M25.2356 19.5528C25.3752 19.8341 25.5497 20.0803 25.6894 20.3616C25.5497 20.0803 25.3752 19.8341 25.2356 19.5528C24.3281 17.9351 23.6999 16.0009 23.4207 13.6799C23.665 15.5438 24.1885 17.5835 25.2356 19.5528Z" fill="#A6E200"/>
<path d="M35.6375 17.1267C35.3583 18.0762 35.0791 18.7796 34.9744 19.0257C35.0791 18.5686 35.2536 18.1114 35.4281 17.6542C35.5328 17.4784 35.6026 17.3025 35.6375 17.1267Z" fill="#A6E200"/>
<path d="M36.1235 14.173C36.0188 10.1991 32.5634 6.99892 26.5601 7.06925C26.6997 7.06925 26.8393 7.06925 26.9789 7.06925C27.1883 7.06925 27.3977 7.06925 27.6421 7.06925C29.2127 7.06925 30.5041 7.28025 31.5512 7.59676H31.5861C35.3905 8.75727 36.2282 11.6058 36.1235 14.173Z" fill="#A6E200"/>
<path d="M36.518 28.8292C36.7826 29.3172 36.8945 29.8844 36.776 30.4267L35.6318 35.6626C35.4302 36.5853 34.6131 37.2431 33.6687 37.2431H32.9758C31.7012 37.2431 31.3213 36.3584 32.5191 35.9228C32.5481 35.9123 32.564 35.9068 32.564 35.9068C32.564 35.9068 37.0744 33.9617 31.1679 26.3256C31.133 26.0443 31.1679 25.6029 31.1679 25.3215C32.7385 26.2007 34.344 26.7634 35.7402 27.1502C36.0137 27.8472 36.2946 28.4173 36.518 28.8292Z" fill="#66AA66"/>
<path d="M31.4467 26.8267C30.6429 25.2191 29.8051 24.617 28.8627 23.8433C27.5713 22.8235 26.594 21.663 25.7913 20.4673C27.2572 22.6828 30.4419 23.5111 31.1664 25.3555C31.1664 25.6368 34.059 29.841 31.4467 26.8267Z" fill="#66AA66"/>
<path d="M35.7032 27.1497C34.307 26.7628 32.7015 26.2002 31.1309 25.321C31.1309 23.1758 31.9336 20.7141 34.9353 19.0965C34.9353 19.0965 34.9353 19.0613 34.9702 19.0261C34.1325 22.1911 34.9004 25.1803 35.7032 27.1497Z" fill="#66AA66"/>
<path d="M36.1232 14.173C36.0883 15.2631 35.8789 16.2478 35.6345 17.0918C35.6345 17.0918 35.6345 17.0918 35.6345 17.127C35.5647 17.3028 35.4949 17.4787 35.4252 17.6545C35.2157 18.1116 35.0761 18.5688 34.9714 19.026C34.9365 19.0963 34.9365 19.0963 34.9365 19.0963C31.9348 20.7141 31.132 23.1757 31.1669 25.3561C29.2124 24.2659 27.2578 22.7185 25.7919 20.4679C25.757 20.4327 25.7221 20.3975 25.7221 20.3272C25.5475 20.081 25.4079 19.7997 25.2683 19.5183C28.5492 14.8763 23.5605 7.37505 23.5605 7.37505C23.5605 7.37505 23.6628 7.31542 23.8373 7.31542C23.8722 7.31542 23.942 7.31542 23.9769 7.28025C24.8844 7.17475 25.7221 7.10442 26.5248 7.06925H26.5597C32.563 6.99892 36.0185 10.1991 36.1232 14.173Z" fill="#66AA66"/>
<path d="M23.42 21.2769C21.6748 22.3671 19.0222 23.1056 15.0781 23.1407C16.1601 15.7557 16.9249 8.2971 16.9249 8.2971C18.6352 8.47293 20.872 8.26516 23.5596 7.38599C23.42 7.77282 21.3607 15.2634 23.42 21.2769Z" fill="#EA6766"/>
<path d="M25.2946 19.5426C24.8408 20.1756 24.1799 20.7834 23.3772 21.2757C21.3179 15.2621 23.42 7.79821 23.5247 7.41138C23.4898 7.65755 22.9661 10.2686 23.385 13.6094V13.6446C23.6991 16.0008 24.422 17.9249 25.2946 19.5426Z" fill="#EA6766"/>
<path d="M23.2402 13.5424C22.8213 10.1664 23.4497 7.63262 23.5604 7.37451C23.5604 7.37451 28.8956 15.297 25.2197 19.5795C24.3471 17.9619 23.5194 15.8634 23.2402 13.5424Z" fill="#66AA66"/>
<path d="M35.4613 17.6181C35.5311 17.4422 35.6009 17.2664 35.6707 17.0906C35.3915 18.0401 35.1123 18.7434 35.0076 18.9896C35.1123 18.5676 35.2519 18.1104 35.4613 17.6181Z" fill="#66D2FF"/>
<path d="M36.1266 14.2083C36.1615 15.1226 35.987 16.1073 35.6379 17.0919C35.8823 16.2831 36.0917 15.2633 36.1266 14.2083Z" fill="#FFBD00"/>
<path d="M39.7144 27.5407C39.7972 27.6864 39.6854 27.8752 39.5184 27.8609C38.8508 27.8039 37.4307 27.6391 35.7065 27.1859C34.9037 25.2166 34.1358 22.2273 34.9735 19.0272C35.0782 18.781 35.3574 18.0777 35.6367 17.1281C35.6367 17.1281 35.6367 17.1281 35.6367 17.093C35.9857 16.1083 36.1253 15.1236 36.1253 14.2093V14.1741C36.23 11.6069 35.3923 8.75841 31.5879 7.5979C34.5896 8.44191 37.312 10.4816 37.312 15.0533C37.312 22.6428 39.0882 26.4384 39.7144 27.5407Z" fill="#66D2FF"/>
<path d="M36.1219 14.1728C36.0172 10.199 32.5618 6.99878 26.5584 7.06911H26.5235C25.7556 7.10428 24.8831 7.17461 23.9756 7.28011C24.1152 7.24495 24.2548 7.24495 24.4293 7.20978C24.4991 7.20978 24.534 7.20978 24.6038 7.17461C24.6736 7.17461 24.7784 7.17461 24.8831 7.13945C25.0925 7.10428 25.3368 7.10428 25.616 7.06911C25.7207 7.06911 25.8255 7.06911 25.9302 7.03395C26 7.03395 26.0349 7.03395 26.1047 7.03395C26.3839 7.03395 26.6631 6.99878 26.9424 6.99878C27.1518 6.99878 27.3612 6.99878 27.6055 6.99878C28.8271 7.03395 30.2232 7.17461 31.5147 7.52628H31.5496C35.3889 8.75712 36.2266 11.6056 36.1219 14.1728Z" fill="#66D2FF"/>
<path fill-rule="evenodd" clip-rule="evenodd" d="M12.5302 0.0355428C12.5302 0.0355428 10.8199 0.563047 10.0521 1.68839C10.087 1.58289 10.3662 0.387212 9.98233 0.000375882C9.9474 -0.034791 0 2.39173 0 9.77681C0 18.5333 5.13076 22.0852 5.34018 22.2259C-4.86979 7.0023 10.2787 4.21492 11.1691 4.05108L11.1724 4.05048L11.1802 4.06389C5.37338 8.81005 4.74706 15.4087 4.92135 19.2015C4.92135 18.2168 5.02605 17.3025 5.23547 16.4233C5.6194 13.2232 6.87591 9.63607 10.4361 8.33495C11.6227 7.31509 12.4953 6.78759 12.4953 6.78759H12.5302C12.1061 5.6701 11.2857 4.24543 11.1802 4.06389L11.2039 4.04457C11.1979 4.04578 11.1874 4.04773 11.1724 4.05048L11.169 4.04457C11.169 4.04457 12.9142 1.72355 12.5302 0.0355428ZM6.73656 3.16518C6.73656 3.16518 8.16761 1.01999 9.7382 0.457321C9.77314 0.457321 10.0174 3.0245 6.73656 3.16518ZM12.1465 0.668451C10.9598 1.30146 10.506 2.60263 10.506 2.60263C11.4784 2.33544 11.9532 1.14088 12.0986 0.775187C12.1254 0.707708 12.141 0.668451 12.1465 0.668451Z" fill="#66D2FF"/>
<path d="M4.95791 19.2009C4.95791 20.1855 5.09752 21.1702 5.34184 22.2252C-5.05929 6.71663 10.8565 4.11428 11.2055 4.04395C5.41165 8.79148 4.74849 15.3677 4.95791 19.2009Z" fill="#66D2FF"/>
<path d="M5.33926 22.2255C5.06003 21.1705 4.95532 20.1507 4.95532 19.2012C5.06003 20.9947 5.33926 22.1552 5.33926 22.2255Z" fill="#00B4FF"/>
<path d="M6.7334 3.16537C6.7334 3.16537 8.16443 1.02019 9.73507 0.45752C9.76997 0.45752 10.0143 3.0247 6.7334 3.16537Z" fill="#5AC8F6"/>
<path d="M12.1119 0.668213C12.1119 0.668213 11.6232 2.32106 10.4714 2.6024C10.5063 2.6024 10.9601 1.30122 12.1119 0.668213Z" fill="#5AC8F6"/>
<path d="M50.7935 30.3203V8.12158H53.085L62.0921 28.2421H61.1691L70.1761 8.12158H72.4677V30.3203H70.0488V11.4907H71.0036L62.5058 30.3203H60.7553L52.2257 11.4907H53.1805V30.3203H50.7935Z" fill="#8392B8"/>
<path d="M84.8929 30.6037C82.3892 30.6037 80.4159 29.8899 78.9731 28.4625C77.5303 27.0141 76.8089 25.0094 76.8089 22.4484C76.8089 20.7901 77.1271 19.3521 77.7637 18.1346C78.4002 16.8961 79.2914 15.941 80.4371 15.2692C81.5829 14.5765 82.8984 14.2302 84.3837 14.2302C85.8477 14.2302 87.0784 14.5345 88.0756 15.1433C89.0729 15.7521 89.8367 16.6232 90.3672 17.7568C90.8976 18.8693 91.1629 20.1918 91.1629 21.7242V22.6688H78.7821V21.063H89.476L88.935 21.4723C88.935 19.793 88.553 18.481 87.7892 17.5363C87.0253 16.5917 85.8902 16.1194 84.3837 16.1194C82.7923 16.1194 81.5511 16.6757 80.6599 17.7882C79.7688 18.8798 79.3232 20.3597 79.3232 22.228V22.5114C79.3232 24.4846 79.8112 25.9855 80.7872 27.0141C81.7845 28.0217 83.1743 28.5255 84.9566 28.5255C85.9114 28.5255 86.8026 28.389 87.6301 28.1162C88.4788 27.8223 89.2851 27.35 90.0489 26.6992L90.9401 28.494C90.2399 29.1657 89.3487 29.6905 88.2666 30.0684C87.2057 30.4252 86.0811 30.6037 84.8929 30.6037Z" fill="#8392B8"/>
<path d="M100.773 30.6037C99.2028 30.6037 98.0039 30.1628 97.1764 29.2812C96.3489 28.3785 95.9352 27.0246 95.9352 25.2193V16.4973H92.8161V14.5135H95.9352V10.1998L98.5132 9.47554V14.5135H103.096V16.4973H98.5132V24.9359C98.5132 26.1954 98.7254 27.0981 99.1497 27.6438C99.5953 28.1686 100.253 28.431 101.123 28.431C101.526 28.431 101.887 28.3995 102.205 28.3366C102.523 28.2526 102.81 28.1581 103.064 28.0532V30.1943C102.767 30.3203 102.407 30.4147 101.982 30.4777C101.579 30.5617 101.176 30.6037 100.773 30.6037Z" fill="#8392B8"/>
<path d="M112.314 30.6037C110.892 30.6037 109.651 30.2783 108.59 29.6276C107.529 28.9558 106.702 28.0112 106.107 26.7937C105.535 25.5762 105.248 24.1172 105.248 22.4169C105.248 20.6956 105.535 19.2262 106.107 18.0087C106.702 16.7911 107.529 15.857 108.59 15.2063C109.651 14.5555 110.892 14.2302 112.314 14.2302C113.757 14.2302 114.998 14.5975 116.037 15.3322C117.098 16.0459 117.799 17.0221 118.138 18.2606H117.756L118.106 14.5135H120.589C120.525 15.1223 120.461 15.7416 120.398 16.3713C120.355 16.9801 120.334 17.5783 120.334 18.1661V30.3203H117.756V26.6048H118.106C117.767 27.8433 117.067 28.8194 116.006 29.5331C114.945 30.2468 113.714 30.6037 112.314 30.6037ZM112.823 28.5255C114.351 28.5255 115.56 28.0112 116.451 26.9826C117.342 25.933 117.788 24.4111 117.788 22.4169C117.788 20.4017 117.342 18.8798 116.451 17.8512C115.56 16.8016 114.351 16.2768 112.823 16.2768C111.316 16.2768 110.107 16.8016 109.195 17.8512C108.303 18.8798 107.858 20.4017 107.858 22.4169C107.858 24.4111 108.303 25.933 109.195 26.9826C110.107 28.0112 111.316 28.5255 112.823 28.5255Z" fill="#8392B8"/>
<path d="M125.128 30.3203V8.12158H129.488L137.286 25.4397H136.267L144.065 8.12158H148.393V30.3203H143.874V15.2378H145.147L138.177 30.3203H135.312L128.31 15.2378H129.647V30.3203H125.128Z" fill="#8392B8"/>
<path d="M158.958 30.6666C157.558 30.6666 156.327 30.3308 155.266 29.659C154.205 28.9873 153.378 28.0322 152.784 26.7937C152.19 25.5552 151.893 24.0648 151.893 22.3225C151.893 20.6011 152.19 19.1212 152.784 17.8827C153.378 16.6442 154.205 15.6996 155.266 15.0488C156.327 14.3771 157.558 14.0412 158.958 14.0412C160.253 14.0412 161.409 14.3561 162.427 14.9859C163.467 15.5946 164.146 16.4238 164.464 17.4734H164.114L164.496 14.3561H169.111C169.047 15.0488 168.984 15.7521 168.92 16.4658C168.878 17.1585 168.856 17.8407 168.856 18.5125V30.3203H164.082L164.051 27.329H164.433C164.093 28.3366 163.414 29.1447 162.396 29.7535C161.377 30.3623 160.231 30.6666 158.958 30.6666ZM160.422 27.0771C161.526 27.0771 162.417 26.6887 163.096 25.912C163.775 25.1353 164.114 23.9388 164.114 22.3225C164.114 20.7061 163.775 19.5201 163.096 18.7644C162.417 18.0087 161.526 17.6308 160.422 17.6308C159.319 17.6308 158.428 18.0087 157.749 18.7644C157.07 19.5201 156.73 20.7061 156.73 22.3225C156.73 23.9388 157.059 25.1353 157.717 25.912C158.396 26.6887 159.298 27.0771 160.422 27.0771Z" fill="#8392B8"/>
<path d="M172.798 37.1216V18.5125C172.798 17.8407 172.777 17.1585 172.734 16.4658C172.692 15.7521 172.628 15.0488 172.543 14.3561H177.158L177.54 17.4734H177.19C177.508 16.4238 178.177 15.5946 179.195 14.9859C180.214 14.3561 181.381 14.0412 182.696 14.0412C184.096 14.0412 185.327 14.3771 186.388 15.0488C187.449 15.6996 188.276 16.6442 188.87 17.8827C189.486 19.1212 189.793 20.6011 189.793 22.3225C189.793 24.0648 189.486 25.5552 188.87 26.7937C188.276 28.0322 187.449 28.9873 186.388 29.659C185.327 30.3308 184.096 30.6666 182.696 30.6666C181.402 30.6666 180.245 30.3623 179.227 29.7535C178.23 29.1447 177.561 28.3366 177.222 27.329H177.604V37.1216H172.798ZM181.232 27.0771C182.357 27.0771 183.258 26.6887 183.937 25.912C184.616 25.1353 184.956 23.9388 184.956 22.3225C184.956 20.7061 184.616 19.5201 183.937 18.7644C183.258 18.0087 182.357 17.6308 181.232 17.6308C180.129 17.6308 179.227 18.0087 178.527 18.7644C177.848 19.5201 177.508 20.7061 177.508 22.3225C177.508 23.9388 177.848 25.1353 178.527 25.912C179.227 26.6887 180.129 27.0771 181.232 27.0771Z" fill="#8392B8"/>
</svg>
